REM DIRINDEX 1\2\6,1\2\7,1\2\8,1\2\9,1\3\10,1\3\11,1\4\12,1\4\13,1\4\14,1\5\15,1\5\16,1\5\17
REM DIRNAME folder01,folder02,folder03,folder04,folder05,folder06,folder07,folder08,folder09,folder10,folder11,folder12,folder13,folder14,folder15,folder16,folder17
TITLE ""
FILE "1900_2_sec11_1084_1100.mp3" MP3
  TRACK 01 AUDIO
    TITLE "0:"
    INDEX 01 00:00:00
  TRACK 02 AUDIO
    TITLE "13:cjc020_4298"
    INDEX 01 00:00:17
  TRACK 03 AUDIO
    TITLE "0:"
    INDEX 01 00:01:38
  TRACK 04 AUDIO
    TITLE "14:cjc020_4299"
    INDEX 01 00:01:42
  TRACK 05 AUDIO
    TITLE "0:"
    INDEX 01 00:03:06
  TRACK 06 AUDIO
    TITLE "13:cjc020_4300"
    INDEX 01 00:03:61
  TRACK 07 AUDIO
    TITLE "0:"
    INDEX 01 00:04:62
  TRACK 08 AUDIO
    TITLE "14:cjc020_4301"
    INDEX 01 00:04:64
  TRACK 09 AUDIO
    TITLE "0:"
    INDEX 01 00:07:62
  TRACK 10 AUDIO
    TITLE "13:cjc020_4302"
    INDEX 01 00:08:44
  TRACK 11 AUDIO
    TITLE "0:"
    INDEX 01 00:09:47
  TRACK 12 AUDIO
    TITLE "14:cjc020_4303"
    INDEX 01 00:09:49
  TRACK 13 AUDIO
    TITLE "0:"
    INDEX 01 00:12:16
  TRACK 14 AUDIO
    TITLE "13:cjc020_4304"
    INDEX 01 00:12:67
  TRACK 15 AUDIO
    TITLE "0:"
    INDEX 01 00:13:63
  TRACK 16 AUDIO
    TITLE "14:cjc020_4305"
    INDEX 01 00:13:65
  TRACK 17 AUDIO
    TITLE "0:"
    INDEX 01 00:16:18
  TRACK 18 AUDIO
    TITLE "13:cjc020_4306"
    INDEX 01 00:16:71
  TRACK 19 AUDIO
    TITLE "0:"
    INDEX 01 00:18:05
  TRACK 20 AUDIO
    TITLE "14:cjc020_4307"
    INDEX 01 00:18:07
  TRACK 21 AUDIO
    TITLE "0:"
    INDEX 01 00:19:28
  TRACK 22 AUDIO
    TITLE "13:cjc020_4308"
    INDEX 01 00:20:06
  TRACK 23 AUDIO
    TITLE "0:"
    INDEX 01 00:20:73
  TRACK 24 AUDIO
    TITLE "14:cjc020_4309"
    INDEX 01 00:21:04
  TRACK 25 AUDIO
    TITLE "0:"
    INDEX 01 00:22:27
  TRACK 26 AUDIO
    TITLE "13:cjc020_4310"
    INDEX 01 00:23:08
  TRACK 27 AUDIO
    TITLE "0:"
    INDEX 01 00:24:12
  TRACK 28 AUDIO
    TITLE "14:cjc020_4311"
    INDEX 01 00:24:14
  TRACK 29 AUDIO
    TITLE "0:"
    INDEX 01 00:27:65
  TRACK 30 AUDIO
    TITLE "13:cjc020_4312"
    INDEX 01 00:28:43
  TRACK 31 AUDIO
    TITLE "0:"
    INDEX 01 00:29:40
  TRACK 32 AUDIO
    TITLE "14:cjc020_4313"
    INDEX 01 00:29:44
  TRACK 33 AUDIO
    TITLE "0:"
    INDEX 01 00:32:25
  TRACK 34 AUDIO
    TITLE "13:cjc020_4314"
    INDEX 01 00:33:05
  TRACK 35 AUDIO
    TITLE "0:"
    INDEX 01 00:34:06
  TRACK 36 AUDIO
    TITLE "14:cjc020_4315"
    INDEX 01 00:34:12
  TRACK 37 AUDIO
    TITLE "0:"
    INDEX 01 00:35:51
  TRACK 38 AUDIO
    TITLE "13:cjc020_4316"
    INDEX 01 00:36:29
  TRACK 39 AUDIO
    TITLE "0:"
    INDEX 01 00:37:32
  TRACK 40 AUDIO
    TITLE "14:cjc020_4317"
    INDEX 01 00:37:38
  TRACK 41 AUDIO
    TITLE "0:"
    INDEX 01 00:38:57
  TRACK 42 AUDIO
    TITLE "13:cjc020_4318"
    INDEX 01 00:39:37
  TRACK 43 AUDIO
    TITLE "0:"
    INDEX 01 00:40:50
  TRACK 44 AUDIO
    TITLE "14:cjc020_4319"
    INDEX 01 00:40:54
  TRACK 45 AUDIO
    TITLE "0:"
    INDEX 01 00:42:08
  TRACK 46 AUDIO
    TITLE "13:cjc020_4320"
    INDEX 01 00:42:61
  TRACK 47 AUDIO
    TITLE "0:"
    INDEX 01 00:43:68
  TRACK 48 AUDIO
    TITLE "14:cjc020_4321"
    INDEX 01 00:43:72
  TRACK 49 AUDIO
    TITLE "0:"
    INDEX 01 00:46:45
  TRACK 50 AUDIO
    TITLE "13:cjc020_4322"
    INDEX 01 00:47:25
  TRACK 51 AUDIO
    TITLE "0:"
    INDEX 01 00:48:32
  TRACK 52 AUDIO
    TITLE "14:cjc020_4323"
    INDEX 01 00:48:38
  TRACK 53 AUDIO
    TITLE "0:"
    INDEX 01 00:49:47
  TRACK 54 AUDIO
    TITLE "13:cjc020_4324"
    INDEX 01 00:50:27
  TRACK 55 AUDIO
    TITLE "0:"
    INDEX 01 00:51:30
  TRACK 56 AUDIO
    TITLE "14:cjc020_4325"
    INDEX 01 00:51:36
  TRACK 57 AUDIO
    TITLE "0:"
    INDEX 01 00:54:36
  TRACK 58 AUDIO
    TITLE "13:cjc020_4326"
    INDEX 01 00:55:12
  TRACK 59 AUDIO
    TITLE "0:"
    INDEX 01 00:56:16
  TRACK 60 AUDIO
    TITLE "14:cjc020_4327"
    INDEX 01 00:56:20
  TRACK 61 AUDIO
    TITLE "0:"
    INDEX 01 00:58:56
  TRACK 62 AUDIO
    TITLE "13:cjc020_4328"
    INDEX 01 00:59:38
  TRACK 63 AUDIO
    TITLE "0:"
    INDEX 01 01:00:43
  TRACK 64 AUDIO
    TITLE "14:cjc020_4329"
    INDEX 01 01:00:47
  TRACK 65 AUDIO
    TITLE "0:"
    INDEX 01 01:05:09
  TRACK 66 AUDIO
    TITLE "13:cjc020_4330"
    INDEX 01 01:05:60
  TRACK 67 AUDIO
    TITLE "0:"
    INDEX 01 01:06:69
  TRACK 68 AUDIO
    TITLE "14:cjc020_4331"
    INDEX 01 01:06:73
  TRACK 69 AUDIO
    TITLE "0:"
    INDEX 01 01:10:30
